<svg id="svg" xmlns="http://www.w3.org/2000/svg" xmlns:xlink="http://www.w3.org/1999/xlink" width="400" height="406.0728744939271" viewBox="0, 0, 400,406.0728744939271"><g id="svgg"><path id="path0" d="M182.200 0.609 C 120.615 6.265,67.495 37.867,33.042 89.343 C 31.149 92.172,29.600 94.632,29.600 94.810 C 29.600 94.988,29.448 95.193,29.262 95.267 C 29.076 95.340,27.845 97.290,26.527 99.600 C -21.072 183.031,-3.727 288.024,68.000 350.646 C 77.442 358.890,92.794 369.942,99.200 373.108 C 99.970 373.489,100.691 373.920,100.803 374.066 C 101.191 374.576,111.834 380.129,116.200 382.100 C 147.520 396.235,183.457 402.391,217.251 399.409 C 254.013 396.166,287.444 383.895,316.400 363.016 C 376.815 319.454,407.764 248.489,398.571 174.600 C 385.312 68.023,289.250 -9.223,182.200 0.609 M210.800 6.189 C 229.051 6.879,251.969 11.708,269.952 18.652 C 281.125 22.966,297.860 31.360,302.780 35.117 C 303.781 35.882,305.050 36.704,305.600 36.945 C 306.150 37.187,306.690 37.483,306.800 37.604 C 306.910 37.725,308.890 39.154,311.200 40.780 C 319.845 46.864,332.772 57.631,338.433 63.463 C 346.198 71.462,361.718 91.110,363.690 95.437 C 363.931 95.967,364.262 96.400,364.426 96.400 C 364.812 96.400,366.239 98.826,370.191 106.200 C 371.252 108.180,372.703 110.882,373.415 112.205 C 384.582 132.950,392.850 164.298,393.826 189.600 C 393.949 192.790,394.108 196.210,394.180 197.200 C 394.403 200.265,393.653 215.700,392.999 221.493 C 389.907 248.880,382.017 273.036,368.273 297.200 C 366.959 299.510,365.652 301.832,365.368 302.360 C 365.085 302.888,364.705 303.428,364.525 303.560 C 364.020 303.931,361.200 308.340,361.200 308.761 C 361.200 308.966,361.049 309.193,360.865 309.267 C 360.680 309.340,359.297 311.110,357.791 313.200 C 349.126 325.225,338.075 337.483,328.800 345.357 C 272.743 392.947,204.538 406.398,135.851 383.408 C 126.513 380.283,108.505 372.176,105.600 369.790 C 105.270 369.519,103.830 368.672,102.400 367.907 C 64.788 347.787,29.683 304.696,15.794 261.600 C -1.883 206.749,3.500 154.238,32.177 101.800 C 44.551 79.173,70.347 52.404,95.000 36.606 C 96.980 35.337,98.690 34.174,98.800 34.021 C 99.265 33.377,113.917 25.626,119.400 23.124 C 142.346 12.654,169.620 6.450,195.200 5.883 C 199.445 5.788,201.043 5.820,210.800 6.189 M188.600 27.196 C 178.745 28.578,174.699 34.503,176.358 45.127 C 177.369 51.600,180.841 55.360,189.319 59.164 C 192.593 60.633,194.543 62.359,195.097 64.279 C 197.042 71.013,196.856 72.910,194.200 73.419 C 191.713 73.897,190.826 71.944,190.810 65.953 L 190.800 62.505 184.300 62.704 C 180.725 62.813,177.735 62.959,177.656 63.028 C 176.608 63.947,179.220 75.831,180.976 78.133 C 186.261 85.062,203.364 83.789,207.865 76.132 C 210.238 72.093,209.434 60.090,206.507 55.866 C 205.233 54.028,201.207 51.097,196.400 48.509 C 190.153 45.145,189.205 44.040,189.149 40.055 C 189.065 34.085,192.761 33.814,193.640 39.726 C 194.306 44.206,194.226 44.162,201.128 43.882 C 208.025 43.603,207.332 44.242,206.619 38.815 C 205.364 29.259,199.743 25.635,188.600 27.196 M220.801 30.666 C 220.543 31.949,219.958 34.307,219.503 35.904 C 219.047 37.501,218.783 38.917,218.917 39.050 C 219.165 39.298,225.398 40.869,226.300 40.910 C 227.003 40.943,227.107 40.407,223.774 53.926 C 217.329 80.070,216.749 82.481,216.872 82.583 C 216.943 82.641,220.060 83.409,223.800 84.291 L 230.600 85.893 230.865 84.847 C 231.011 84.271,231.437 82.360,231.811 80.600 C 232.850 75.709,240.447 43.820,240.613 43.654 C 240.693 43.574,241.579 43.906,242.581 44.391 C 244.211 45.180,248.033 46.383,248.950 46.395 C 249.143 46.398,249.195 45.876,249.067 45.235 C 248.933 44.567,249.257 42.320,249.825 39.976 C 250.370 37.725,250.714 35.781,250.590 35.656 C 250.465 35.532,244.297 33.965,236.882 32.175 C 229.467 30.385,222.921 28.788,222.336 28.626 C 221.303 28.340,221.257 28.401,220.801 30.666 M154.200 34.208 C 152.440 34.943,150.145 35.755,149.100 36.012 C 148.055 36.269,147.200 36.626,147.200 36.806 C 147.200 37.468,149.968 44.357,151.310 47.034 C 154.220 52.840,157.135 61.310,155.278 58.566 C 154.062 56.768,140.222 40.000,139.954 40.000 C 139.765 40.000,137.694 40.720,135.351 41.600 C 133.008 42.480,130.557 43.200,129.903 43.200 C 128.928 43.200,128.766 43.326,129.003 43.900 C 129.162 44.285,129.637 45.556,130.058 46.725 C 130.480 47.894,131.000 49.154,131.214 49.525 C 131.629 50.245,136.939 63.947,139.381 70.600 C 140.189 72.800,141.718 76.850,142.780 79.600 C 143.842 82.350,145.479 86.625,146.417 89.100 C 148.142 93.651,148.896 94.474,150.220 93.248 C 150.429 93.054,152.535 92.135,154.900 91.205 C 159.593 89.359,159.531 89.427,158.454 87.284 C 157.158 84.703,150.721 67.637,150.873 67.182 C 151.039 66.682,156.528 73.869,159.591 78.600 C 160.731 80.360,162.666 83.004,163.892 84.476 L 166.121 87.153 167.361 86.611 C 168.042 86.313,170.535 85.309,172.900 84.379 C 175.265 83.449,177.199 82.579,177.199 82.444 C 177.197 82.165,168.511 59.368,162.359 43.500 C 160.077 37.615,158.028 32.816,157.805 32.836 C 157.582 32.855,155.960 33.473,154.200 34.208 M260.301 47.909 C 258.376 51.589,254.716 58.470,252.168 63.200 C 249.619 67.930,246.001 74.680,244.126 78.200 C 242.252 81.720,240.269 85.266,239.719 86.079 C 239.169 86.893,238.791 87.773,238.878 88.034 C 239.015 88.446,259.406 99.614,259.983 99.592 C 260.102 99.587,261.187 97.562,262.393 95.092 C 263.598 92.621,264.642 90.483,264.713 90.340 C 264.783 90.196,262.851 89.026,260.420 87.740 C 257.990 86.453,256.001 85.295,256.000 85.166 C 256.000 84.606,261.442 75.045,261.834 74.918 C 262.073 74.841,262.703 75.209,263.234 75.737 C 265.465 77.952,270.000 79.702,270.000 78.347 C 270.000 77.878,270.810 75.903,271.800 73.958 C 274.045 69.547,274.219 70.136,269.996 67.876 C 268.018 66.818,266.400 65.883,266.400 65.798 C 266.400 65.401,270.911 57.179,271.241 56.975 C 271.448 56.847,272.180 57.217,272.870 57.797 C 273.962 58.716,279.210 61.600,279.790 61.600 C 279.906 61.600,280.000 61.269,280.000 60.865 C 280.000 60.460,280.906 58.276,282.014 56.011 C 283.121 53.747,283.976 51.860,283.914 51.818 C 283.851 51.777,280.470 49.972,276.400 47.807 C 266.080 42.319,265.448 41.973,265.020 41.563 C 264.189 40.769,263.671 41.466,260.301 47.909 M106.165 58.730 C 101.585 60.313,96.705 64.655,94.373 69.224 C 91.664 74.532,92.729 78.853,98.461 85.799 C 98.825 86.239,102.397 90.712,106.398 95.737 C 114.732 106.202,115.888 107.438,118.585 108.765 C 129.122 113.947,144.365 100.916,141.061 89.551 C 140.060 86.107,127.139 69.078,120.432 62.364 C 116.106 58.033,111.542 56.871,106.165 58.730 M284.200 75.459 C 276.940 83.273,268.730 92.001,265.956 94.855 L 260.912 100.043 265.880 104.721 C 271.575 110.086,271.533 110.064,272.600 108.239 C 273.681 106.390,287.606 91.556,288.020 91.813 C 288.516 92.119,289.600 94.432,289.600 95.184 C 289.600 96.110,286.224 100.056,279.851 106.581 C 276.853 109.651,274.400 112.291,274.400 112.449 C 274.400 112.931,283.360 121.200,283.882 121.200 C 284.152 121.200,284.584 120.795,284.844 120.300 C 285.418 119.205,286.788 117.648,292.768 111.296 C 299.523 104.120,300.507 101.729,298.400 97.600 C 297.960 96.738,297.600 95.947,297.600 95.844 C 297.600 95.741,298.635 96.182,299.900 96.823 C 303.493 98.646,304.586 98.288,309.036 93.838 C 315.917 86.957,317.138 81.331,312.892 76.066 C 310.112 72.618,298.327 61.152,297.641 61.226 C 297.508 61.240,291.460 67.645,284.200 75.459 M118.924 82.000 C 130.463 96.390,130.802 96.893,129.749 98.056 C 127.864 100.140,127.542 99.842,115.729 85.081 C 104.487 71.034,104.120 70.440,105.697 68.863 C 107.098 67.462,107.929 68.287,118.924 82.000 M303.432 79.713 C 303.874 81.083,298.320 87.600,296.709 87.600 C 295.668 87.600,293.600 86.358,293.600 85.733 C 293.600 85.461,295.355 83.351,297.500 81.045 L 301.400 76.852 302.301 77.926 C 302.796 78.517,303.305 79.321,303.432 79.713 M70.997 92.884 C 68.849 96.248,66.666 99.460,66.146 100.022 C 64.453 101.851,64.342 101.711,72.000 107.484 C 82.973 115.756,86.308 118.796,82.700 117.237 C 80.620 116.338,66.545 109.862,63.846 108.561 C 61.420 107.393,61.923 106.984,57.767 113.501 C 55.838 116.525,53.637 119.662,52.876 120.472 C 50.999 122.469,51.051 122.532,58.264 127.006 C 64.425 130.828,68.256 133.302,73.600 136.911 C 81.489 142.240,96.229 151.600,96.732 151.600 C 96.969 151.600,97.501 150.835,97.915 149.899 C 98.329 148.964,99.681 146.627,100.920 144.706 L 103.173 141.214 99.086 138.545 C 96.839 137.077,91.940 133.950,88.200 131.597 C 70.715 120.595,70.203 119.955,84.200 126.595 C 96.222 132.297,104.224 136.181,104.740 136.564 C 105.742 137.307,106.442 137.142,106.844 136.068 C 107.064 135.481,107.978 133.779,108.876 132.287 C 109.773 130.795,110.438 129.519,110.354 129.452 C 109.948 129.129,93.194 114.918,88.682 111.069 C 85.867 108.668,83.655 106.611,83.768 106.499 C 84.018 106.249,97.859 115.150,106.599 121.183 C 113.739 126.111,113.766 126.122,114.373 124.283 C 114.612 123.558,115.886 121.298,117.204 119.260 C 118.522 117.222,119.600 115.501,119.600 115.435 C 119.600 115.370,117.035 113.661,113.900 111.637 C 110.765 109.614,105.860 106.430,103.000 104.561 C 97.612 101.041,75.649 87.089,75.172 86.884 C 75.024 86.820,73.145 89.520,70.997 92.884 M185.600 106.264 C 179.216 106.841,175.535 107.339,172.400 108.048 C 168.376 108.959,165.726 109.665,164.400 110.182 C 160.287 111.785,157.600 113.013,157.600 113.289 C 157.600 113.460,157.327 113.600,156.994 113.600 C 155.455 113.600,148.316 119.717,146.178 122.868 C 145.531 123.820,144.777 124.744,144.501 124.920 C 144.226 125.096,144.000 125.407,144.000 125.612 C 144.000 125.817,143.404 126.933,142.676 128.092 C 141.305 130.274,138.001 137.544,137.265 140.000 C 136.073 143.973,135.210 147.225,134.821 149.200 C 134.583 150.410,134.299 151.850,134.188 152.400 C 134.078 152.950,133.801 154.660,133.572 156.200 C 132.184 165.546,131.854 171.605,132.700 172.223 C 133.084 172.505,133.254 172.879,133.078 173.056 C 132.901 173.232,132.629 173.170,132.473 172.918 C 132.317 172.666,131.192 172.086,129.972 171.630 C 127.022 170.526,125.605 169.292,122.359 165.000 C 120.862 163.020,119.403 161.129,119.118 160.797 C 118.103 159.615,115.600 155.657,115.600 155.232 C 115.600 154.994,115.441 154.800,115.246 154.800 C 115.051 154.800,114.604 154.194,114.253 153.454 C 113.558 151.991,111.586 151.761,111.612 153.147 C 111.636 154.407,112.361 163.419,112.582 165.200 C 112.705 166.190,112.991 168.620,113.217 170.600 C 114.220 179.389,115.642 185.328,117.223 187.338 C 117.682 187.922,117.948 188.400,117.813 188.400 C 117.679 188.400,117.936 188.794,118.384 189.275 C 118.833 189.757,119.200 190.374,119.200 190.647 C 119.200 190.920,119.425 191.388,119.700 191.687 C 120.241 192.275,121.023 193.558,121.903 195.300 C 122.209 195.905,122.606 196.400,122.786 196.400 C 122.966 196.400,123.237 196.895,123.388 197.500 C 123.539 198.105,123.897 198.870,124.184 199.200 C 124.471 199.530,124.829 200.205,124.980 200.700 C 125.130 201.195,125.432 201.600,125.651 201.600 C 125.869 201.600,125.936 201.780,125.800 202.000 C 125.664 202.220,125.754 202.400,126.000 202.400 C 126.246 202.400,126.359 202.542,126.252 202.716 C 126.144 202.890,126.292 203.565,126.581 204.216 C 128.519 208.590,129.888 216.194,129.206 218.800 C 129.177 218.910,129.082 219.687,128.994 220.527 C 128.575 224.518,128.338 226.029,127.729 228.600 C 127.573 229.260,127.432 229.890,127.416 230.000 C 127.401 230.110,127.277 230.380,127.141 230.600 C 127.005 230.820,126.769 231.585,126.615 232.300 C 126.462 233.015,126.150 233.600,125.922 233.600 C 125.286 233.600,126.048 248.658,126.792 250.800 C 126.983 251.350,127.272 252.520,127.434 253.400 C 127.862 255.724,127.854 255.691,128.593 258.251 C 129.452 261.228,131.637 266.558,132.071 266.733 C 132.252 266.807,132.400 267.116,132.400 267.421 C 132.400 267.982,133.953 271.231,134.398 271.600 C 134.530 271.710,135.157 272.697,135.791 273.794 C 136.425 274.890,137.089 275.970,137.266 276.194 C 137.443 276.417,138.041 277.166,138.594 277.858 C 139.147 278.550,139.600 279.218,139.600 279.344 C 139.600 279.720,145.302 285.600,145.667 285.600 C 145.852 285.600,146.857 286.409,147.901 287.398 C 148.946 288.387,149.994 289.197,150.230 289.198 C 150.467 289.199,151.052 289.616,151.530 290.125 C 152.008 290.634,153.029 291.297,153.799 291.600 C 154.570 291.902,155.200 292.296,155.200 292.475 C 155.200 292.654,155.457 292.800,155.771 292.800 C 156.086 292.800,156.587 293.044,156.886 293.343 C 157.185 293.642,158.098 294.128,158.915 294.424 C 159.732 294.719,160.400 295.115,160.400 295.304 C 160.400 295.493,160.548 295.556,160.728 295.444 C 160.909 295.333,161.588 295.565,162.238 295.960 C 162.888 296.355,164.135 296.909,165.010 297.191 C 165.884 297.473,166.780 297.829,167.000 297.982 C 167.220 298.135,168.570 298.579,170.000 298.970 C 171.430 299.361,173.500 299.951,174.600 300.282 C 175.700 300.612,177.050 300.948,177.600 301.027 C 178.720 301.189,179.769 301.397,182.400 301.978 C 184.214 302.379,184.768 302.449,192.400 303.230 C 196.240 303.623,210.138 303.499,213.600 303.041 C 214.370 302.940,216.080 302.740,217.400 302.597 C 218.720 302.455,220.970 302.071,222.400 301.745 C 223.830 301.418,225.540 301.079,226.200 300.991 C 226.860 300.903,228.570 300.450,230.000 299.986 C 231.430 299.522,232.929 299.072,233.332 298.988 C 238.887 297.819,249.300 292.527,254.756 288.100 C 255.502 287.495,256.484 286.730,256.939 286.400 C 258.217 285.472,262.800 280.740,262.800 280.349 C 262.800 280.157,263.070 280.000,263.400 280.000 C 263.730 280.000,264.000 279.724,264.000 279.387 C 264.000 279.051,264.270 278.671,264.600 278.545 C 264.930 278.418,265.200 278.132,265.200 277.910 C 265.200 277.688,265.707 276.928,266.327 276.222 C 266.946 275.517,268.146 273.693,268.992 272.170 C 269.839 270.646,270.697 269.290,270.900 269.155 C 271.102 269.021,271.254 268.751,271.237 268.555 C 271.220 268.360,271.633 267.300,272.156 266.200 C 275.197 259.801,277.249 251.014,277.997 241.200 L 278.469 235.000 277.424 232.921 C 275.328 228.751,273.697 214.892,274.855 211.088 C 275.070 210.380,275.569 208.630,275.964 207.200 C 276.596 204.910,278.969 199.907,281.488 195.555 C 281.948 194.760,282.567 193.680,282.862 193.155 C 283.158 192.630,283.490 192.110,283.600 192.000 C 283.710 191.890,284.025 191.395,284.300 190.900 C 284.575 190.405,285.025 189.595,285.300 189.100 C 285.575 188.605,285.917 188.110,286.061 188.000 C 287.320 187.036,290.808 174.041,290.220 172.508 C 290.103 172.203,290.173 171.199,290.377 170.277 C 290.820 168.263,291.569 160.219,291.718 155.867 C 291.817 152.980,290.725 150.517,290.111 152.243 C 290.041 152.439,289.402 153.475,288.692 154.545 C 287.981 155.614,287.117 156.990,286.772 157.601 C 286.426 158.213,285.886 158.988,285.572 159.324 C 285.257 159.659,284.190 161.123,283.200 162.575 C 278.357 169.682,271.641 174.473,271.572 170.872 C 271.531 168.752,271.238 164.431,271.025 162.800 C 270.925 162.030,270.735 160.050,270.603 158.400 C 270.471 156.750,270.253 155.130,270.118 154.800 C 269.983 154.470,269.810 153.660,269.732 153.000 C 269.413 150.278,269.143 149.200,268.782 149.200 C 268.572 149.200,268.400 148.649,268.400 147.975 C 268.400 146.824,268.040 145.400,266.537 140.600 C 264.416 133.833,257.502 121.200,255.918 121.200 C 255.743 121.200,255.600 120.996,255.600 120.746 C 255.600 120.247,254.753 119.415,251.797 117.009 C 248.499 114.323,246.647 113.265,240.764 110.700 C 237.360 109.216,228.412 107.284,222.600 106.778 C 220.400 106.587,216.800 106.248,214.600 106.025 C 209.024 105.461,193.020 105.593,185.600 106.264 M330.800 113.146 C 326.753 114.527,322.492 116.522,305.645 124.927 C 298.098 128.692,294.813 132.897,294.807 138.800 C 294.800 144.173,298.947 149.600,303.060 149.600 C 305.165 149.600,305.261 150.050,303.400 151.200 C 301.573 152.329,301.616 152.844,303.937 157.507 C 305.442 160.530,306.075 162.428,306.770 166.000 C 307.263 168.530,307.851 171.476,308.076 172.547 L 308.486 174.494 310.743 174.237 C 316.026 173.638,316.629 173.558,317.200 173.388 C 317.785 173.214,319.893 177.440,319.445 177.888 C 318.973 178.361,312.477 180.000,311.077 180.000 C 309.658 180.000,309.533 180.083,309.730 180.900 C 312.278 191.473,312.878 195.807,312.489 200.800 C 312.275 203.550,312.242 205.956,312.416 206.147 C 312.591 206.337,316.393 206.643,320.867 206.826 C 331.670 207.267,343.816 208.020,345.800 208.370 L 347.400 208.653 345.200 208.929 C 342.257 209.298,314.070 211.162,312.800 211.071 C 311.810 211.001,311.797 211.041,311.461 215.328 C 311.053 220.543,310.249 219.802,317.851 221.216 C 335.687 224.535,343.934 226.168,345.200 226.631 L 346.600 227.144 345.351 227.172 C 343.487 227.214,312.905 224.842,311.829 224.571 C 310.987 224.360,310.878 224.501,310.662 226.069 C 310.244 229.110,309.881 236.400,310.148 236.400 C 310.290 236.400,312.249 236.678,314.503 237.017 C 318.620 237.637,319.736 237.752,326.000 238.204 C 333.116 238.716,333.848 238.776,335.600 238.986 C 336.590 239.104,341.270 239.477,346.000 239.814 C 358.681 240.718,360.036 240.818,361.900 240.989 L 363.600 241.144 363.622 238.072 C 363.634 236.382,363.864 232.255,364.132 228.900 C 364.401 225.545,364.586 222.800,364.543 222.800 C 363.879 222.800,340.986 217.912,340.659 217.700 C 339.882 217.198,343.875 216.872,351.239 216.835 C 362.348 216.780,365.709 216.459,365.453 215.480 C 365.338 215.043,365.525 211.012,365.868 206.522 C 366.211 202.032,366.413 198.280,366.317 198.184 C 366.221 198.088,355.086 197.196,341.571 196.202 C 314.463 194.208,314.139 194.170,314.328 192.994 C 314.537 191.691,315.629 191.131,317.600 191.316 C 320.565 191.593,322.509 191.000,341.135 184.130 C 350.961 180.506,360.049 177.173,361.331 176.723 C 363.529 175.952,363.647 175.845,363.387 174.853 C 363.095 173.736,360.698 162.569,359.921 158.700 C 359.667 157.435,359.266 156.400,359.029 156.401 C 358.793 156.401,347.350 157.211,333.600 158.200 C 304.020 160.328,307.200 160.225,307.200 159.049 C 307.200 157.718,307.843 157.345,310.615 157.070 C 311.944 156.938,313.689 156.555,314.494 156.219 C 316.787 155.260,330.562 148.397,330.930 148.029 C 331.202 147.758,325.695 135.838,324.488 134.084 C 324.211 133.681,323.482 133.879,321.178 134.984 C 319.552 135.763,317.902 136.400,317.511 136.400 C 316.578 136.400,316.610 136.904,317.600 137.800 C 318.983 139.051,318.522 139.539,313.821 141.799 C 307.863 144.662,305.600 144.579,305.600 141.496 C 305.600 140.055,305.948 139.852,320.800 132.620 C 338.124 124.183,338.265 124.138,339.776 126.534 C 340.576 127.802,334.228 132.094,330.910 132.529 C 329.439 132.722,329.472 132.845,332.794 139.539 C 336.205 146.412,336.183 146.385,337.646 145.279 C 338.171 144.882,339.950 143.720,341.600 142.696 C 349.917 137.535,351.650 131.062,347.195 121.800 C 343.663 114.457,337.103 110.995,330.800 113.146 M70.848 149.680 C 69.927 152.386,68.624 156.099,67.952 157.932 C 67.280 159.764,66.809 161.342,66.905 161.438 C 67.125 161.658,75.246 164.400,75.679 164.400 C 75.855 164.400,76.000 164.021,76.000 163.559 C 76.000 163.096,77.096 159.391,78.435 155.327 C 79.774 151.262,80.809 147.893,80.735 147.840 C 80.661 147.787,79.070 147.193,77.200 146.519 C 75.330 145.846,73.512 145.175,73.161 145.028 C 72.639 144.810,72.214 145.665,70.848 149.680 M38.484 163.079 C 36.605 173.748,35.124 184.078,35.433 184.356 C 35.981 184.847,74.783 191.110,82.800 192.001 C 85.110 192.258,87.157 192.498,87.348 192.534 C 87.758 192.612,90.001 179.920,89.643 179.544 C 89.510 179.403,84.720 178.526,79.000 177.595 C 73.280 176.663,68.445 175.759,68.255 175.586 C 68.063 175.410,68.204 173.545,68.572 171.385 C 69.362 166.751,69.739 167.240,64.708 166.382 C 62.448 165.997,60.260 165.618,59.845 165.541 C 58.948 165.373,58.848 165.750,58.556 170.395 C 58.293 174.579,58.912 174.258,53.118 173.218 C 47.158 172.148,47.712 172.835,48.554 167.554 C 49.392 162.299,49.927 163.042,44.600 162.075 C 42.180 161.636,39.906 161.159,39.547 161.014 C 39.011 160.798,38.821 161.167,38.484 163.079 M349.200 169.158 C 348.870 169.342,346.350 170.160,343.600 170.976 C 340.850 171.791,336.369 173.179,333.642 174.059 C 328.159 175.829,328.248 175.846,327.811 172.935 C 327.451 170.535,327.412 170.557,332.685 170.244 C 335.278 170.090,339.470 169.724,342.000 169.429 C 347.554 168.783,350.043 168.689,349.200 169.158 M151.173 178.268 C 151.545 178.727,152.469 179.237,153.225 179.401 C 153.981 179.564,155.268 180.036,156.084 180.449 C 156.900 180.862,157.845 181.200,158.184 181.200 C 158.523 181.200,158.800 181.353,158.800 181.539 C 158.800 182.054,174.409 187.826,176.800 188.194 C 177.130 188.245,177.907 188.492,178.526 188.743 C 180.541 189.561,185.631 188.698,184.641 187.707 C 184.303 187.370,185.199 186.400,185.849 186.400 C 186.655 186.400,186.522 187.906,185.677 188.359 C 185.269 188.577,184.529 190.016,183.982 191.653 C 183.011 194.561,180.018 198.396,178.716 198.402 C 178.432 198.404,177.750 198.634,177.200 198.915 C 176.133 199.458,172.488 199.549,171.684 199.052 C 171.418 198.887,171.032 198.856,170.828 198.983 C 170.623 199.109,170.342 199.030,170.204 198.807 C 170.066 198.583,169.450 198.400,168.836 198.400 C 168.222 198.400,167.198 198.224,166.560 198.009 C 165.922 197.794,164.680 197.537,163.800 197.438 C 162.920 197.338,162.155 197.244,162.100 197.229 C 162.045 197.213,161.926 197.245,161.836 197.300 C 161.063 197.772,158.916 193.150,158.574 190.277 C 158.110 186.388,157.133 183.559,155.788 182.215 C 154.280 180.707,151.379 179.181,150.910 179.650 C 150.573 179.987,145.724 178.237,145.000 177.517 C 144.735 177.253,145.594 177.172,147.548 177.275 C 149.940 177.402,150.624 177.589,151.173 178.268 M256.980 177.580 C 256.311 178.249,251.243 179.994,251.020 179.632 C 250.766 179.222,248.524 180.305,246.617 181.760 C 245.147 182.881,244.366 184.787,243.569 189.200 C 242.308 196.183,240.940 197.507,234.200 198.270 C 233.320 198.369,232.330 198.559,232.000 198.691 C 231.670 198.823,231.265 198.969,231.100 199.015 C 230.935 199.062,230.755 199.138,230.700 199.184 C 230.304 199.516,225.608 199.305,224.829 198.920 C 224.294 198.657,223.709 198.532,223.529 198.644 C 223.348 198.756,223.200 198.657,223.200 198.424 C 223.200 198.191,222.991 198.000,222.735 198.000 C 222.262 198.000,219.601 195.223,219.600 194.729 C 219.600 194.579,219.358 194.215,219.062 193.919 C 218.767 193.624,218.204 192.396,217.812 191.191 C 217.420 189.986,216.743 188.608,216.308 188.130 C 215.342 187.068,215.682 186.201,216.824 186.813 C 217.251 187.041,217.600 187.463,217.600 187.750 C 217.600 188.459,219.340 189.200,221.005 189.200 C 222.433 189.200,236.708 184.652,237.376 183.984 C 237.587 183.773,238.101 183.600,238.518 183.600 C 238.935 183.600,239.754 183.354,240.338 183.054 C 244.237 181.050,249.458 178.950,250.111 179.124 C 250.282 179.170,250.532 178.921,250.667 178.570 C 250.801 178.220,251.291 177.780,251.756 177.592 C 252.948 177.110,257.460 177.100,256.980 177.580 M76.904 197.929 C 77.021 199.838,77.241 201.707,77.394 202.083 C 77.819 203.125,77.501 203.143,55.000 203.366 L 34.200 203.571 34.225 204.586 C 34.239 205.144,34.284 208.329,34.325 211.664 L 34.400 217.728 55.100 217.466 C 66.485 217.322,78.455 216.986,81.700 216.719 L 87.600 216.235 87.600 205.950 C 87.600 193.083,88.246 194.389,81.903 194.427 L 76.692 194.459 76.904 197.929 M149.771 201.068 C 149.912 201.435,149.855 201.842,149.646 201.972 C 149.291 202.191,150.207 205.416,151.188 207.400 C 151.641 208.317,152.475 210.408,152.623 211.000 C 152.809 211.740,155.224 217.390,155.810 218.454 C 156.130 219.034,156.446 219.871,156.514 220.315 C 156.582 220.759,156.899 221.437,157.219 221.822 C 157.538 222.208,157.738 222.540,157.663 222.561 C 157.588 222.583,157.706 223.050,157.926 223.600 C 159.699 228.036,160.145 229.029,160.460 229.229 C 160.657 229.356,160.889 229.806,160.976 230.229 C 161.062 230.653,161.868 232.420,162.766 234.155 C 164.743 237.973,164.750 237.427,162.700 239.625 C 158.640 243.981,150.679 245.552,149.098 242.309 C 147.583 239.204,145.730 233.838,145.919 233.108 C 145.960 232.948,145.734 231.701,145.417 230.339 C 144.712 227.317,144.879 220.144,145.769 215.200 C 146.580 210.697,147.824 205.279,148.376 203.847 C 148.621 203.213,148.714 202.360,148.584 201.951 C 148.156 200.601,149.273 199.770,149.771 201.068 M254.800 201.224 C 254.800 201.431,254.536 201.600,254.213 201.600 C 253.856 201.600,253.715 201.365,253.854 201.002 C 254.091 200.387,254.800 200.553,254.800 201.224 M256.582 210.600 C 258.298 219.305,258.959 227.788,258.046 229.400 C 257.921 229.620,257.784 230.340,257.742 231.000 C 257.657 232.326,256.068 238.367,255.639 239.000 C 255.489 239.220,255.130 240.095,254.841 240.944 C 253.610 244.564,250.391 245.129,245.052 242.662 C 239.660 240.171,238.596 237.990,240.763 233.870 C 241.403 232.654,241.823 231.556,241.696 231.430 C 241.570 231.303,241.641 231.200,241.853 231.200 C 242.065 231.200,242.477 230.525,242.768 229.700 C 243.058 228.875,243.800 227.120,244.416 225.800 C 246.313 221.732,247.200 219.627,247.200 219.193 C 247.200 218.964,247.740 217.707,248.400 216.400 C 249.060 215.093,249.600 213.812,249.600 213.555 C 249.600 213.298,249.946 212.348,250.368 211.444 C 250.791 210.540,251.806 208.017,252.623 205.839 L 254.110 201.877 254.872 203.839 C 255.292 204.917,256.061 207.960,256.582 210.600 M199.000 217.578 L 199.000 224.755 194.200 224.878 C 190.058 224.983,189.304 224.904,188.700 224.300 C 187.051 222.651,188.288 220.386,191.277 219.583 C 194.466 218.725,194.768 218.495,195.823 216.108 C 196.743 214.026,198.708 210.400,198.917 210.400 C 198.963 210.400,199.000 213.630,199.000 217.578 M204.199 212.804 C 204.054 213.259,204.129 213.600,204.373 213.600 C 204.608 213.600,204.806 213.825,204.814 214.100 C 204.821 214.375,205.175 215.320,205.600 216.200 C 206.025 217.080,206.379 218.020,206.386 218.290 C 206.403 218.897,208.531 220.027,210.135 220.280 C 212.080 220.587,213.259 221.566,213.121 222.760 L 213.000 223.800 208.300 223.913 L 203.600 224.025 203.600 218.439 C 203.600 215.366,203.431 212.409,203.226 211.867 C 203.020 211.325,202.958 210.775,203.090 210.644 C 203.531 210.202,204.454 212.000,204.199 212.804 M79.000 220.209 C 62.108 226.729,39.701 235.152,38.139 235.568 C 36.871 235.905,36.518 236.174,36.648 236.705 C 36.741 237.087,37.696 241.507,38.770 246.528 C 39.844 251.548,40.814 255.747,40.926 255.859 C 41.038 255.972,44.462 255.775,48.535 255.422 C 58.086 254.594,73.754 253.278,77.600 252.981 C 82.427 252.608,87.613 252.005,89.370 251.612 C 92.769 250.853,94.200 250.774,93.572 251.380 C 92.603 252.317,48.546 274.400,47.646 274.400 C 46.513 274.400,46.395 274.043,49.900 281.235 C 53.286 288.184,53.198 288.105,55.680 286.460 C 57.528 285.234,69.895 278.800,70.401 278.800 C 70.569 278.800,70.807 279.115,70.929 279.500 C 71.051 279.885,71.469 280.688,71.858 281.284 C 72.247 281.880,72.483 282.440,72.383 282.528 C 71.452 283.343,56.979 290.400,56.239 290.400 C 54.633 290.400,54.815 291.100,58.049 297.370 C 61.445 303.954,61.493 304.007,63.094 302.895 C 63.702 302.473,71.940 298.205,81.400 293.412 C 90.860 288.618,100.959 283.459,103.843 281.946 L 109.086 279.196 106.043 273.203 C 104.369 269.907,102.881 267.208,102.735 267.205 C 102.590 267.202,98.119 269.450,92.800 272.200 C 81.449 278.069,83.031 277.629,81.825 275.250 L 80.837 273.299 90.118 268.687 C 95.223 266.150,99.742 263.816,100.161 263.498 C 100.891 262.945,100.789 262.661,97.674 256.561 C 94.651 250.642,94.325 249.756,92.975 243.800 C 92.177 240.280,91.494 237.368,91.457 237.328 C 91.420 237.289,89.439 237.526,87.056 237.856 C 81.950 238.562,81.784 238.523,81.423 236.532 C 81.270 235.689,81.052 234.611,80.938 234.136 C 80.752 233.359,80.970 233.224,83.066 232.810 C 84.349 232.556,86.513 231.989,87.874 231.550 L 90.348 230.752 89.844 229.276 C 89.567 228.464,88.816 225.415,88.176 222.500 C 87.536 219.585,86.919 217.217,86.806 217.238 C 86.693 217.258,83.180 218.595,79.000 220.209 M72.546 238.568 C 73.340 240.966,73.920 240.611,68.000 241.349 C 56.876 242.735,48.499 243.130,52.000 242.102 C 59.667 239.851,67.405 237.496,69.200 236.866 C 71.726 235.979,71.680 235.956,72.546 238.568 M306.261 244.384 C 305.208 247.363,303.807 251.330,303.149 253.200 C 302.491 255.070,301.513 257.680,300.975 259.000 C 300.438 260.320,299.998 261.514,299.999 261.653 C 299.999 261.792,301.575 262.392,303.500 262.985 C 305.425 263.579,307.774 264.312,308.719 264.614 C 310.036 265.036,310.468 265.052,310.565 264.682 C 311.665 260.478,313.461 255.600,313.907 255.600 C 314.210 255.600,315.210 256.030,316.129 256.554 C 317.048 257.079,319.303 258.000,321.141 258.601 C 325.017 259.868,325.015 259.861,322.812 264.575 C 321.218 267.984,321.120 267.775,324.900 269.030 C 326.715 269.632,328.868 270.472,329.685 270.895 C 331.353 271.760,332.000 271.579,332.000 270.246 C 332.000 269.173,333.848 263.592,334.380 263.060 C 334.606 262.834,335.274 263.001,336.100 263.488 C 336.843 263.927,338.700 264.693,340.226 265.192 C 343.922 266.400,343.825 266.137,342.217 270.637 C 341.438 272.817,340.800 274.806,340.800 275.058 C 340.800 275.546,349.519 278.800,350.826 278.800 C 351.440 278.800,351.600 278.518,351.600 277.439 C 351.600 276.690,352.698 272.955,354.040 269.139 C 355.381 265.323,356.893 261.007,357.399 259.548 L 358.319 256.897 339.860 250.390 C 329.707 246.811,318.424 242.777,314.788 241.425 L 308.176 238.968 306.261 244.384 M300.600 267.360 C 292.570 269.899,285.530 280.894,287.189 288.305 C 288.037 292.096,292.803 296.199,299.600 298.989 C 305.288 301.325,307.758 300.966,317.709 296.363 C 320.519 295.063,323.360 294.000,324.022 294.000 C 326.966 294.000,330.924 296.906,330.721 298.919 C 330.473 301.379,328.800 301.354,324.899 298.833 L 322.434 297.239 319.776 301.320 C 318.314 303.564,316.663 305.884,316.107 306.476 C 314.768 307.902,315.008 308.323,318.252 310.246 C 325.902 314.780,330.407 313.960,336.080 307.000 C 344.153 297.094,343.114 289.001,333.030 283.241 C 326.899 279.738,324.211 279.734,316.179 283.210 C 306.765 287.284,306.120 287.396,302.480 285.577 C 298.418 283.547,297.207 281.516,298.829 279.454 C 299.749 278.284,300.849 278.096,301.585 278.982 C 302.068 279.564,307.604 282.926,308.875 283.410 C 309.382 283.603,309.763 283.248,310.407 281.986 C 310.878 281.062,312.352 278.610,313.682 276.536 C 315.012 274.463,316.032 272.714,315.950 272.650 C 310.638 268.540,304.049 266.269,300.600 267.360 M101.798 304.002 C 97.775 307.656,97.592 306.935,104.330 313.996 C 109.711 319.635,111.600 321.041,111.600 319.407 C 111.600 319.082,112.774 317.571,114.209 316.050 L 116.818 313.284 110.907 307.190 L 104.996 301.097 101.798 304.002 M280.800 315.049 C 277.830 317.603,274.815 319.944,274.100 320.252 C 272.325 321.015,272.382 321.178,275.830 325.209 C 278.978 328.891,279.446 329.104,280.578 327.377 C 280.923 326.852,283.643 324.330,286.623 321.773 C 289.603 319.216,291.987 316.992,291.921 316.830 C 291.738 316.384,286.629 310.464,286.400 310.433 C 286.290 310.417,283.770 312.495,280.800 315.049 M158.600 320.426 C 153.784 321.860,151.648 325.189,151.618 331.313 L 151.600 334.826 156.100 334.713 L 160.600 334.600 160.800 331.000 C 161.035 326.765,161.211 326.400,163.010 326.400 C 165.136 326.400,165.898 328.880,164.650 331.740 C 164.348 332.433,163.893 333.757,163.640 334.682 C 163.386 335.607,162.764 336.867,162.258 337.482 C 161.751 338.097,159.146 342.257,156.468 346.726 L 151.600 354.851 151.600 357.926 L 151.599 361.000 162.496 360.870 C 168.489 360.799,173.417 360.709,173.447 360.670 C 173.477 360.632,173.585 359.089,173.688 357.241 L 173.875 353.882 168.537 354.124 C 162.149 354.412,162.320 354.837,166.327 348.638 C 173.465 337.594,174.130 336.098,174.171 331.000 C 174.236 322.915,166.923 317.949,158.600 320.426 M184.400 320.615 C 179.342 322.185,178.013 324.764,177.506 333.991 C 176.274 356.453,178.445 361.360,189.628 361.390 C 196.668 361.409,200.039 358.634,200.869 352.138 C 201.657 345.967,201.092 328.930,200.018 326.485 C 197.676 321.153,190.885 318.601,184.400 320.615 M230.518 320.653 C 228.026 321.418,225.576 323.410,224.573 325.487 C 223.636 327.425,223.231 338.747,223.996 341.600 C 225.493 347.185,234.750 349.784,237.325 345.343 C 238.353 343.570,238.531 346.769,237.757 353.108 C 237.270 357.096,234.000 356.652,234.000 352.597 L 234.000 350.517 230.940 350.259 C 229.256 350.116,226.896 350.000,225.694 350.000 L 223.508 350.000 223.795 352.300 C 225.176 363.353,244.222 365.312,247.167 354.704 C 248.033 351.584,247.586 327.776,246.625 325.839 C 244.163 320.876,237.149 318.618,230.518 320.653 M212.977 321.779 C 212.106 323.108,208.863 325.133,205.869 326.217 L 203.400 327.111 203.400 329.579 L 203.400 332.047 206.062 332.143 C 210.283 332.296,210.000 331.216,210.000 347.171 L 210.000 361.044 214.900 360.875 C 217.595 360.783,219.838 360.675,219.886 360.635 C 219.933 360.595,220.023 351.616,220.086 340.681 L 220.200 320.800 216.909 320.800 C 213.859 320.800,213.571 320.872,212.977 321.779 M190.870 326.900 C 191.375 328.531,190.566 355.252,190.000 355.609 C 188.655 356.458,187.736 355.430,187.398 352.700 C 186.895 348.640,187.344 327.789,187.949 327.061 C 188.592 326.287,190.644 326.174,190.870 326.900 M237.593 326.992 C 238.309 327.855,238.011 340.023,237.251 340.939 C 236.505 341.837,234.921 341.774,234.414 340.826 C 233.697 339.486,233.879 327.778,234.629 327.029 C 235.421 326.236,236.950 326.217,237.593 326.992 " stroke="none" fill="#fbc00b" fill-rule="evenodd"></path><path id="path1" d="M186.959 23.956 C 181.907 25.402,178.111 28.718,176.955 32.695 C 176.609 33.885,176.416 34.949,176.525 35.058 C 176.634 35.168,176.845 34.704,176.994 34.028 C 177.929 29.771,183.943 27.000,192.249 27.000 L 197.898 27.000 201.040 28.600 C 205.386 30.814,205.841 31.706,207.228 40.715 C 207.720 43.908,208.411 44.275,210.148 42.265 C 211.388 40.831,210.485 32.822,208.698 29.400 C 205.985 24.204,195.374 21.547,186.959 23.956 M222.182 25.782 C 219.923 28.040,219.568 27.901,239.600 32.611 C 245.870 34.085,251.067 35.353,251.150 35.429 C 251.232 35.504,250.827 37.637,250.250 40.168 C 248.977 45.751,248.980 45.600,250.138 45.600 C 251.694 45.600,252.451 44.247,253.653 39.318 C 255.532 31.615,256.686 32.481,238.835 28.198 C 222.844 24.362,223.506 24.458,222.182 25.782 M153.600 31.031 C 148.974 32.829,147.600 33.805,147.600 35.294 C 147.600 36.352,148.710 36.134,154.109 34.015 C 156.347 33.136,158.290 32.549,158.428 32.709 C 158.566 32.869,161.844 41.280,165.713 51.400 C 175.421 76.797,176.691 80.046,177.390 81.262 C 177.726 81.846,178.000 82.411,178.000 82.517 C 178.000 82.624,176.155 83.389,173.900 84.217 C 171.645 85.045,169.260 85.974,168.600 86.281 L 167.400 86.840 168.600 86.606 C 170.470 86.243,179.318 82.764,180.100 82.084 C 180.979 81.320,181.006 79.255,180.162 77.287 C 179.811 76.469,179.209 74.900,178.825 73.800 C 176.096 65.999,162.742 32.137,161.670 30.300 C 160.754 28.732,159.140 28.878,153.600 31.031 M136.200 37.861 C 131.074 39.817,129.600 40.797,129.600 42.251 C 129.600 43.316,130.292 43.168,136.318 40.821 C 140.533 39.179,139.571 38.519,147.865 48.738 C 151.789 53.573,155.070 57.460,155.155 57.376 C 155.817 56.724,149.665 43.917,147.289 41.000 C 142.505 35.126,143.002 35.267,136.200 37.861 M190.262 36.731 C 189.814 37.226,189.600 38.178,189.600 39.672 C 189.600 43.986,190.228 44.716,197.200 48.512 C 207.127 53.917,209.575 57.831,209.593 68.323 C 209.605 75.240,208.093 78.286,203.517 80.566 C 200.672 81.984,202.396 81.885,205.414 80.457 C 211.226 77.708,213.200 74.235,213.200 66.763 C 213.200 56.444,211.233 52.416,203.841 47.599 C 201.838 46.294,199.910 44.975,199.555 44.668 C 199.156 44.323,198.055 44.121,196.675 44.141 C 193.887 44.182,193.990 44.307,193.548 40.353 C 193.067 36.053,191.970 34.844,190.262 36.731 M264.734 38.013 C 264.076 38.397,262.791 40.537,259.695 46.400 C 258.824 48.050,257.478 50.570,256.704 52.000 C 255.931 53.430,254.579 55.950,253.700 57.600 C 252.822 59.250,251.567 61.590,250.911 62.800 C 241.140 80.830,237.720 87.751,239.554 85.780 C 239.875 85.434,245.997 74.039,251.792 63.000 C 256.510 54.012,258.578 50.150,259.674 48.282 C 260.294 47.228,260.800 46.265,260.800 46.143 C 260.800 45.977,262.772 42.568,263.855 40.862 C 263.941 40.727,268.579 43.140,278.987 48.736 C 285.151 52.049,284.893 51.563,282.671 55.686 C 280.162 60.338,280.029 60.894,281.458 60.730 C 282.639 60.594,282.739 60.469,285.575 55.600 C 289.223 49.337,289.243 49.373,279.323 44.096 C 266.331 37.185,266.227 37.142,264.734 38.013 M236.419 61.875 C 230.086 88.420,230.421 86.181,232.931 85.226 C 234.327 84.695,234.628 83.693,239.446 63.479 C 243.896 44.810,243.873 44.991,241.788 44.583 L 240.600 44.350 236.419 61.875 M107.443 54.818 C 102.267 56.640,96.993 61.206,94.830 65.736 C 93.376 68.784,93.175 70.688,94.595 67.962 C 98.641 60.195,110.160 55.436,116.600 58.870 C 119.785 60.569,129.781 72.064,138.342 83.872 C 144.839 92.835,141.942 102.613,131.100 108.315 C 127.729 110.088,130.012 109.610,133.961 107.716 C 140.244 104.702,144.973 98.458,145.472 92.517 C 145.866 87.806,144.775 85.014,140.210 79.052 C 138.885 77.320,137.402 75.355,136.915 74.685 C 136.428 74.014,135.887 73.361,135.712 73.233 C 135.356 72.971,130.737 67.266,129.200 65.189 C 127.753 63.234,123.887 58.778,122.549 57.523 C 119.133 54.319,112.325 53.100,107.443 54.818 M269.029 61.364 C 267.803 63.649,266.800 65.615,266.800 65.732 C 266.800 65.850,268.420 66.800,270.400 67.844 C 274.481 69.995,274.408 69.842,272.760 72.800 C 270.540 76.783,269.868 78.800,270.762 78.800 C 272.025 78.800,273.099 77.559,275.188 73.687 C 278.374 67.782,278.265 66.953,274.021 64.811 C 270.969 63.270,270.953 63.226,272.412 60.640 L 273.650 58.446 272.454 57.828 L 271.257 57.209 269.029 61.364 M283.545 73.122 L 269.015 88.644 268.206 87.443 C 267.738 86.749,266.090 85.545,264.306 84.595 C 262.606 83.690,261.101 82.834,260.961 82.694 C 260.821 82.554,261.442 81.098,262.342 79.459 L 263.978 76.478 262.946 75.802 C 261.678 74.970,261.830 74.798,258.833 80.470 L 256.366 85.139 259.883 87.025 C 261.817 88.061,263.806 89.160,264.302 89.465 L 265.204 90.021 263.002 94.361 C 259.572 101.121,260.047 100.865,269.019 91.116 C 272.723 87.092,277.115 82.360,278.780 80.600 C 285.977 72.991,294.374 64.063,295.897 62.400 L 297.545 60.600 298.864 61.800 C 315.937 77.333,317.955 80.610,314.596 87.345 C 313.342 89.859,309.191 94.619,306.640 96.469 C 305.200 97.513,305.156 97.600,306.062 97.600 C 308.774 97.600,315.586 90.997,317.899 86.126 C 321.480 78.585,319.514 74.806,305.112 61.547 C 298.764 55.703,300.945 54.533,283.545 73.122 M180.884 59.194 C 178.358 59.792,177.010 62.048,178.884 62.538 C 179.371 62.665,182.313 62.659,185.422 62.525 L 191.075 62.281 191.305 66.840 C 191.570 72.085,191.746 72.721,193.015 73.040 C 195.123 73.569,196.834 71.540,196.008 69.489 C 195.812 69.000,195.627 68.780,195.597 69.000 C 195.445 70.136,194.852 67.498,194.828 65.578 C 194.767 60.728,187.824 57.549,180.884 59.194 M105.984 69.133 C 104.520 70.318,104.983 71.048,115.794 84.600 C 126.646 98.203,127.417 99.039,128.731 98.622 C 131.212 97.835,131.252 97.903,119.318 82.877 C 106.896 67.237,107.525 67.885,105.984 69.133 M151.600 68.554 C 151.600 68.639,153.388 73.354,155.574 79.033 C 157.760 84.713,159.475 89.479,159.384 89.626 C 159.293 89.772,157.370 90.588,155.110 91.437 C 152.849 92.287,151.270 93.036,151.600 93.100 C 151.930 93.165,154.355 92.359,156.990 91.309 C 163.116 88.867,163.412 88.464,162.039 84.432 C 161.516 82.895,161.147 81.585,161.219 81.519 C 161.406 81.348,152.056 68.400,151.745 68.400 C 151.665 68.400,151.600 68.469,151.600 68.554 M297.557 81.646 L 293.827 85.692 294.758 86.446 C 296.320 87.711,297.191 87.383,300.066 84.444 C 303.096 81.348,303.601 80.184,302.588 78.638 C 301.638 77.188,301.705 77.148,297.557 81.646 M74.928 84.100 C 73.504 85.678,65.672 98.156,65.387 99.300 C 64.822 101.570,65.939 100.199,70.347 93.213 L 74.883 86.026 77.141 87.550 C 79.047 88.836,87.206 94.081,116.000 112.531 C 118.090 113.870,119.887 115.030,119.992 115.109 C 120.213 115.272,119.785 116.024,116.656 120.961 C 114.086 125.017,114.032 125.200,115.401 125.200 C 116.483 125.200,117.703 123.719,121.300 118.035 C 124.433 113.084,124.234 112.552,117.685 108.400 C 115.429 106.970,108.284 102.380,101.807 98.200 C 95.329 94.020,89.258 90.122,88.315 89.538 C 87.372 88.954,84.714 87.289,82.408 85.838 C 77.772 82.921,76.300 82.579,74.928 84.100 M286.978 92.968 C 286.550 93.501,283.259 97.056,279.665 100.868 C 272.066 108.927,271.707 109.419,273.689 109.047 C 275.049 108.792,275.061 108.803,274.896 110.095 C 274.708 111.571,275.842 110.499,284.654 100.880 C 289.157 95.964,289.594 95.123,288.622 93.243 C 287.852 91.753,287.942 91.768,286.978 92.968 M298.229 96.741 C 300.815 102.765,300.472 103.567,290.846 114.000 C 288.309 116.750,285.879 119.405,285.446 119.900 L 284.661 120.800 285.774 120.800 C 286.996 120.800,287.949 119.896,296.522 110.600 C 301.662 105.027,303.190 102.532,303.196 99.700 C 303.199 98.318,303.063 98.000,302.468 98.000 C 302.065 98.000,300.883 97.568,299.841 97.041 C 298.302 96.262,297.999 96.205,298.229 96.741 M62.337 104.269 C 61.973 104.365,60.782 105.829,59.690 107.522 C 52.444 118.756,51.855 119.767,52.111 120.527 C 52.198 120.787,54.206 118.030,56.573 114.400 C 58.940 110.770,61.021 107.647,61.198 107.461 C 61.503 107.138,64.099 108.210,72.200 112.006 C 78.614 115.011,82.800 116.823,82.800 116.595 C 82.800 116.497,80.055 114.223,76.700 111.540 C 69.291 105.615,65.155 103.521,62.337 104.269 M86.800 108.915 C 87.350 109.457,92.840 114.164,99.000 119.375 C 112.490 130.788,111.285 129.090,108.803 133.200 C 106.877 136.389,106.803 136.608,107.608 136.732 C 109.309 136.994,114.000 130.508,114.000 127.895 C 114.000 126.170,114.885 126.884,103.400 119.349 C 89.503 110.231,85.726 107.857,86.800 108.915 M332.800 108.978 C 326.897 110.640,302.506 122.825,299.735 125.496 C 297.685 127.473,295.973 130.300,295.433 132.600 C 295.183 133.663,295.283 133.594,296.304 132.000 C 298.896 127.954,311.401 120.721,327.986 113.674 C 336.281 110.150,343.189 112.860,347.454 121.313 C 352.597 131.505,350.031 139.098,339.661 144.372 C 336.939 145.756,338.055 145.837,340.982 144.467 C 353.086 138.803,356.369 130.737,351.206 119.350 C 347.512 111.203,339.978 106.958,332.800 108.978 M78.407 124.934 C 79.173 125.447,85.065 129.246,91.500 133.375 C 97.935 137.505,103.200 141.075,103.200 141.310 C 103.200 141.544,102.039 143.557,100.620 145.783 C 97.331 150.942,97.231 151.200,98.522 151.200 C 100.074 151.200,106.800 141.719,106.800 139.530 C 106.800 137.503,105.055 136.492,88.700 129.051 C 77.194 123.816,76.066 123.364,78.407 124.934 M328.377 129.332 C 305.519 140.343,304.524 140.948,306.199 142.798 C 307.288 144.003,308.474 143.797,313.455 141.541 C 318.357 139.321,318.353 139.324,317.278 137.997 L 316.555 137.105 314.978 137.907 C 312.249 139.295,310.400 139.973,310.400 139.585 C 310.400 139.082,315.927 136.312,317.247 136.154 C 317.823 136.085,319.658 135.406,321.325 134.647 C 323.530 133.642,324.449 133.393,324.696 133.733 C 325.404 134.707,331.744 147.989,331.576 148.146 C 331.096 148.594,317.246 155.338,313.400 156.996 C 308.737 159.007,307.738 159.600,309.013 159.600 C 309.439 159.600,319.780 158.865,331.993 157.966 C 344.207 157.067,355.441 156.302,356.958 156.266 L 359.716 156.200 361.781 166.124 C 362.917 171.582,363.709 176.132,363.541 176.236 C 362.901 176.632,321.650 191.499,318.700 192.397 C 316.995 192.916,315.600 193.463,315.600 193.613 C 315.600 193.763,316.995 194.000,318.700 194.141 C 321.590 194.380,345.930 196.213,360.000 197.251 C 363.410 197.502,366.321 197.819,366.469 197.954 C 366.617 198.089,366.451 202.113,366.099 206.896 C 365.747 211.679,365.572 215.706,365.711 215.844 C 366.185 216.318,367.989 215.588,368.583 214.682 C 369.243 213.675,370.647 197.840,370.226 196.161 C 369.732 194.193,369.297 194.121,348.600 192.603 C 326.954 191.015,325.907 190.908,326.855 190.377 C 327.202 190.183,336.090 186.871,346.607 183.016 C 366.712 175.648,367.200 175.420,367.200 173.424 C 367.200 172.126,364.970 161.101,363.716 156.202 C 362.634 151.972,364.234 152.141,340.994 153.814 C 330.069 154.601,320.831 155.178,320.465 155.096 C 320.099 155.014,323.036 153.338,326.991 151.373 C 336.693 146.552,336.328 147.575,331.688 138.205 C 327.360 129.465,327.636 130.602,329.600 129.600 C 331.287 128.739,331.556 128.896,330.587 130.176 C 329.780 131.244,329.839 132.402,330.700 132.390 C 332.238 132.369,339.395 128.220,339.531 127.270 C 339.964 124.243,338.305 124.549,328.377 129.332 M73.241 141.900 C 72.419 142.579,67.158 157.363,67.232 158.788 C 67.249 159.125,68.389 156.070,69.765 152.000 C 71.141 147.930,72.432 144.604,72.633 144.609 C 74.155 144.647,81.200 147.458,81.200 148.028 C 81.200 148.390,80.231 151.547,79.048 155.043 C 76.150 163.603,76.072 164.000,77.306 164.000 C 77.840 164.000,78.565 163.681,78.918 163.290 C 79.601 162.536,84.800 147.570,84.800 146.360 C 84.800 143.718,75.421 140.100,73.241 141.900 M302.400 150.862 C 302.400 151.699,302.424 151.703,303.200 151.000 C 303.640 150.602,304.000 150.214,304.000 150.138 C 304.000 150.062,303.640 150.000,303.200 150.000 C 302.647 150.000,302.400 150.267,302.400 150.862 M40.586 157.603 C 39.412 158.047,38.896 158.809,38.692 160.400 C 38.593 161.170,38.591 161.471,38.688 161.069 C 38.811 160.558,39.065 160.427,39.532 160.631 C 39.899 160.792,42.180 161.277,44.600 161.710 C 50.093 162.693,49.806 162.321,48.976 167.376 C 48.563 169.893,48.425 171.770,48.638 171.962 C 49.015 172.301,57.573 173.774,57.780 173.536 C 58.267 172.973,58.211 169.298,57.718 169.487 C 57.411 169.605,56.068 169.469,54.732 169.186 L 52.304 168.670 52.552 166.735 C 52.688 165.671,52.911 163.934,53.047 162.877 C 53.429 159.891,52.405 158.988,47.800 158.250 C 42.074 157.333,41.447 157.277,40.586 157.603 M60.986 161.976 C 59.992 162.385,59.383 163.123,59.106 164.258 C 58.879 165.187,59.157 165.271,66.299 166.409 C 69.803 166.968,69.640 166.725,68.980 170.400 C 68.684 172.050,68.433 173.855,68.421 174.411 L 68.400 175.423 79.100 177.168 C 84.985 178.127,89.928 179.025,90.085 179.161 C 90.242 179.298,89.876 182.377,89.271 186.002 C 87.987 193.706,88.591 193.171,82.272 192.198 C 77.611 191.480,76.800 191.665,76.800 193.445 C 76.800 194.091,81.342 194.577,84.570 194.276 C 85.922 194.149,87.234 194.174,87.486 194.330 C 87.993 194.643,88.303 215.672,87.818 216.854 C 87.671 217.213,88.191 220.379,88.975 223.888 C 89.759 227.397,90.400 230.445,90.400 230.660 C 90.400 230.875,88.915 231.463,87.100 231.966 C 85.285 232.470,83.238 233.050,82.551 233.255 L 81.303 233.628 81.694 235.514 C 82.246 238.180,82.227 238.173,87.188 237.601 C 92.502 236.989,91.639 236.100,93.398 244.000 C 94.781 250.209,95.059 250.974,98.086 256.914 C 99.856 260.387,101.236 263.289,101.152 263.364 C 101.069 263.438,96.635 265.701,91.300 268.393 C 85.965 271.086,81.600 273.443,81.600 273.631 C 81.600 274.217,82.943 276.821,83.187 276.707 C 83.314 276.648,87.795 274.380,93.143 271.668 C 98.492 268.955,102.922 266.795,102.987 266.868 C 103.748 267.722,109.544 279.410,109.313 279.625 C 109.141 279.786,98.650 285.106,86.000 291.447 C 71.698 298.616,63.317 303.026,63.838 303.108 C 64.323 303.184,69.202 300.942,75.438 297.777 C 115.567 277.412,113.287 278.745,112.460 276.122 C 111.271 272.354,106.628 264.212,105.345 263.647 C 104.196 263.141,104.107 262.969,104.290 261.609 C 104.458 260.350,104.034 259.215,101.507 254.162 C 98.230 247.609,98.037 247.071,96.566 240.400 C 95.048 233.519,94.664 233.151,89.614 233.739 C 84.049 234.388,83.827 233.547,89.106 231.815 C 94.204 230.142,94.336 229.770,92.586 222.017 C 91.052 215.222,91.053 194.289,92.588 185.809 C 93.766 179.303,93.854 177.111,92.972 176.229 C 92.168 175.425,92.235 175.440,81.600 173.665 L 72.600 172.163 72.619 170.781 C 72.629 170.022,72.778 168.481,72.949 167.357 C 73.425 164.227,72.502 163.407,67.600 162.603 C 65.510 162.260,63.350 161.904,62.800 161.811 C 62.250 161.718,61.434 161.792,60.986 161.976 M343.200 169.479 C 342.210 169.555,339.550 169.883,337.288 170.209 C 335.026 170.534,331.909 170.800,330.361 170.800 C 327.868 170.800,327.570 170.880,327.752 171.500 C 327.865 171.885,328.077 172.875,328.223 173.700 C 328.369 174.525,328.577 175.200,328.684 175.200 C 328.858 175.200,346.809 169.759,347.800 169.406 C 348.266 169.240,345.791 169.279,343.200 169.479 M314.400 175.815 C 312.698 176.355,311.097 177.138,310.700 177.627 C 309.996 178.494,309.742 180.001,310.300 179.999 C 310.612 179.998,317.844 178.112,318.670 177.816 C 319.270 177.601,318.480 174.784,317.833 174.833 C 317.595 174.850,316.050 175.293,314.400 175.815 M42.119 199.576 C 35.233 199.814,34.960 199.898,34.557 201.913 L 34.300 203.200 42.650 203.199 C 47.243 203.199,56.805 203.080,63.900 202.935 L 76.800 202.671 76.800 200.935 L 76.800 199.200 62.700 199.276 C 54.945 199.319,45.683 199.454,42.119 199.576 M316.200 207.183 C 313.032 207.550,312.464 207.847,312.070 209.343 C 311.628 211.020,310.611 210.989,327.592 209.822 C 335.769 209.260,343.032 208.776,343.730 208.747 C 346.301 208.641,339.215 208.041,330.435 207.622 C 325.466 207.385,320.770 207.127,320.000 207.049 C 319.230 206.970,317.520 207.031,316.200 207.183 M80.400 217.097 C 78.224 217.217,75.483 218.121,63.600 222.638 C 48.270 228.465,47.886 228.611,44.000 230.124 C 42.570 230.681,40.728 231.344,39.906 231.597 C 37.798 232.248,35.538 235.600,37.208 235.600 C 38.006 235.600,85.458 217.475,85.952 216.981 C 86.131 216.802,85.521 216.815,80.400 217.097 M348.132 217.170 C 341.535 217.461,341.360 217.651,346.703 218.718 C 355.201 220.416,364.558 222.425,364.720 222.587 C 364.811 222.677,364.596 226.524,364.242 231.136 C 363.465 241.287,363.468 240.800,364.181 240.800 C 366.968 240.800,367.368 239.610,368.029 229.367 C 368.594 220.594,368.490 219.793,366.689 219.032 C 364.403 218.064,357.864 216.785,355.600 216.862 C 354.390 216.903,351.029 217.042,348.132 217.170 M312.277 221.080 C 311.640 221.245,310.800 222.666,310.800 223.579 C 310.800 224.244,342.532 227.202,343.139 226.594 C 343.246 226.487,343.206 226.400,343.051 226.400 C 342.895 226.400,336.547 225.140,328.943 223.600 C 315.744 220.927,313.929 220.652,312.277 221.080 M308.683 236.309 C 307.724 237.368,299.679 260.353,300.542 259.569 C 300.759 259.371,304.203 249.734,306.892 241.800 C 307.339 240.480,307.828 239.262,307.979 239.094 C 308.251 238.789,357.845 256.085,358.460 256.700 C 358.638 256.878,357.276 261.276,355.432 266.474 C 351.268 278.214,351.222 278.400,352.506 278.400 C 354.102 278.400,354.587 277.439,358.370 266.799 C 362.114 256.271,362.493 254.551,361.300 253.518 C 359.773 252.197,317.611 237.712,313.700 237.164 C 311.182 236.812,310.000 236.480,310.000 236.123 C 310.000 235.393,309.441 235.471,308.683 236.309 M70.192 236.762 C 69.976 236.975,68.540 237.504,67.000 237.939 C 61.591 239.465,52.998 242.105,52.800 242.300 C 52.487 242.609,69.124 241.083,71.653 240.570 C 72.697 240.359,72.702 240.341,72.227 238.479 C 71.759 236.645,70.979 235.987,70.192 236.762 M87.629 252.075 C 85.995 252.279,84.195 252.765,83.629 253.154 C 83.063 253.543,76.300 257.032,68.600 260.907 C 50.124 270.206,48.345 271.187,47.624 272.477 C 46.824 273.907,47.296 274.269,49.110 273.621 C 52.012 272.583,92.584 251.610,91.600 251.656 C 91.050 251.682,89.263 251.871,87.629 252.075 M312.474 259.765 C 311.773 261.836,311.200 263.821,311.200 264.178 C 311.200 265.303,310.149 265.298,306.640 264.155 C 300.426 262.132,293.872 266.136,289.710 274.499 C 287.854 278.229,287.627 279.989,289.427 276.699 C 295.042 266.436,302.995 264.441,313.304 270.712 C 316.890 272.894,316.889 272.288,313.316 277.985 C 311.862 280.303,310.427 282.605,310.127 283.101 L 309.580 284.002 307.123 282.761 C 305.771 282.078,303.775 280.908,302.687 280.160 C 300.343 278.548,299.515 278.464,298.816 279.769 C 297.962 281.366,298.594 282.682,300.911 284.129 C 305.310 286.877,305.925 286.930,310.707 284.965 C 312.628 284.176,316.000 282.789,318.200 281.884 C 325.629 278.826,333.142 280.768,339.011 287.265 C 344.449 293.284,340.662 305.816,331.626 311.701 C 329.032 313.390,331.357 312.856,334.342 311.076 C 344.213 305.193,348.383 291.428,342.345 284.655 C 335.535 277.013,323.591 274.370,317.441 279.142 C 314.857 281.147,314.842 279.821,317.400 275.746 C 320.591 270.664,320.444 270.000,315.457 266.966 C 314.106 266.144,312.924 265.409,312.832 265.334 C 312.739 265.258,313.026 264.793,313.468 264.298 C 314.194 263.488,316.634 257.271,316.327 257.015 C 315.961 256.709,314.405 256.000,314.100 256.000 C 313.906 256.000,313.174 257.694,312.474 259.765 M322.845 262.433 C 321.625 266.222,321.944 266.336,323.242 262.574 C 323.807 260.939,324.154 259.600,324.013 259.600 C 323.873 259.600,323.347 260.875,322.845 262.433 M334.285 263.500 C 333.700 264.581,331.929 270.862,332.147 271.080 C 332.899 271.832,334.648 270.500,335.668 268.400 C 337.443 264.740,337.479 264.176,335.971 263.650 C 334.440 263.116,334.490 263.121,334.285 263.500 M342.027 269.203 C 341.502 270.745,341.172 272.105,341.293 272.226 C 341.413 272.347,341.970 271.085,342.529 269.423 C 343.088 267.760,343.418 266.400,343.263 266.400 C 343.108 266.400,342.552 267.661,342.027 269.203 M62.600 283.081 C 58.420 285.192,55.225 286.998,55.499 287.093 C 55.845 287.213,55.921 287.751,55.747 288.843 C 55.499 290.389,55.514 290.413,56.483 290.045 C 58.401 289.315,72.000 282.392,72.000 282.145 C 72.000 281.893,70.393 279.182,70.267 279.221 C 70.230 279.233,66.780 280.970,62.600 283.081 M322.400 294.549 C 321.630 294.848,319.560 295.768,317.800 296.593 C 316.040 297.417,313.520 298.512,312.200 299.026 C 310.880 299.540,310.104 299.970,310.476 299.980 C 311.363 300.006,316.489 298.158,318.900 296.944 C 321.423 295.672,321.357 296.162,318.379 300.767 C 317.047 302.826,315.862 305.071,315.745 305.755 C 315.484 307.285,315.508 307.254,319.144 301.478 C 320.764 298.905,322.164 296.800,322.257 296.800 C 322.349 296.800,323.633 297.610,325.108 298.600 C 328.066 300.584,329.710 300.890,330.408 299.585 C 331.798 296.988,325.810 293.223,322.400 294.549 M102.310 300.506 C 99.486 303.151,97.884 305.617,98.554 306.288 C 98.690 306.423,100.163 305.214,101.828 303.599 L 104.855 300.664 111.027 306.827 C 118.210 313.999,117.890 313.140,114.600 316.400 C 111.786 319.189,111.559 319.600,112.836 319.600 C 113.347 319.600,114.984 318.309,117.036 316.289 C 121.881 311.520,121.951 311.837,114.271 303.900 C 106.730 296.106,106.943 296.166,102.310 300.506 M282.106 310.744 C 275.220 316.515,273.651 318.062,273.346 319.379 L 273.073 320.559 274.304 319.779 C 274.981 319.351,277.796 317.061,280.559 314.690 C 286.891 309.261,286.120 309.373,289.516 313.383 C 293.090 317.602,293.441 316.566,286.400 322.574 C 283.100 325.389,280.400 327.762,280.400 327.846 C 280.400 329.287,291.424 321.132,294.900 317.119 C 296.416 315.370,295.542 313.351,291.341 308.900 C 288.400 305.784,287.908 305.882,282.106 310.744 M170.246 321.816 C 177.177 326.418,176.280 333.753,167.032 348.100 L 163.228 354.000 165.514 353.984 L 167.800 353.967 170.960 348.957 C 179.576 335.295,179.975 326.690,172.200 322.206 C 169.732 320.782,168.242 320.485,170.246 321.816 M196.873 321.960 C 198.240 322.827,198.993 323.712,199.851 325.460 L 201.000 327.800 201.121 340.325 C 201.263 354.982,201.086 356.135,198.255 358.966 C 193.570 363.651,182.871 362.799,179.300 357.455 C 177.747 355.131,177.578 355.881,179.034 358.640 C 183.771 367.622,199.147 367.415,203.240 358.315 C 204.141 356.310,204.201 355.659,204.395 345.800 L 204.600 335.400 206.800 335.540 C 208.010 335.618,209.216 335.857,209.480 336.073 C 209.844 336.370,209.905 336.095,209.732 334.932 C 209.422 332.856,208.700 332.400,205.724 332.400 L 203.200 332.400 203.200 329.780 C 203.200 325.861,201.853 323.912,197.713 321.843 C 194.964 320.469,194.601 320.519,196.873 321.960 M220.400 340.973 L 220.400 361.200 215.833 361.200 C 209.804 361.200,208.853 361.653,210.800 363.600 C 211.978 364.778,221.011 364.805,222.456 363.635 L 223.400 362.871 223.400 342.650 C 223.400 320.802,223.484 321.671,221.300 321.016 L 220.400 320.746 220.400 340.973 M243.454 321.567 C 247.247 323.881,247.998 326.282,248.260 336.938 C 248.620 351.621,248.000 355.939,245.116 358.822 C 240.329 363.610,228.406 362.761,225.135 357.400 C 224.067 355.648,224.237 356.905,225.372 359.144 C 229.647 367.581,246.107 367.028,250.044 358.315 C 251.533 355.020,251.538 330.092,250.050 327.069 C 248.766 324.462,247.395 323.055,244.942 321.829 C 242.530 320.623,241.652 320.469,243.454 321.567 M161.549 327.461 C 161.212 327.867,160.946 329.409,160.859 331.461 L 160.718 334.800 156.159 334.800 C 151.867 334.800,151.600 334.847,151.600 335.600 C 151.600 337.461,152.888 338.000,157.338 338.000 C 162.518 338.000,163.251 337.358,163.961 332.200 C 164.149 330.831,164.405 330.237,164.773 330.318 C 165.475 330.473,165.062 327.613,164.314 327.138 C 163.467 326.601,162.134 326.757,161.549 327.461 M188.192 327.276 C 188.081 327.567,188.037 333.924,188.095 341.403 L 188.200 355.000 189.277 355.124 C 190.797 355.300,190.850 354.732,190.716 339.800 L 190.600 327.000 189.498 326.873 C 188.852 326.799,188.311 326.966,188.192 327.276 M234.767 327.440 C 233.433 329.047,233.817 340.460,235.230 341.216 C 236.969 342.147,237.298 341.304,237.226 336.094 C 237.190 333.442,237.313 331.177,237.501 331.061 C 237.689 330.945,237.743 329.984,237.621 328.925 C 237.374 326.775,235.938 326.028,234.767 327.440 M224.400 344.665 C 224.400 347.105,227.868 349.748,231.400 350.000 L 234.200 350.200 234.092 351.911 C 233.944 354.238,234.523 355.200,236.071 355.200 L 237.314 355.200 237.059 352.758 C 236.842 350.688,236.895 350.351,237.402 350.545 C 237.898 350.736,238.000 350.291,238.000 347.933 L 238.000 345.091 236.965 346.126 C 234.283 348.808,226.509 348.035,225.333 344.969 C 225.114 344.399,224.400 344.166,224.400 344.665 M174.245 354.928 C 174.116 355.407,174.008 357.020,174.005 358.512 L 174.000 361.224 162.656 361.112 L 151.313 361.000 151.655 362.200 C 152.275 364.374,152.425 364.400,164.448 364.400 C 174.001 364.400,175.630 364.313,176.171 363.771 C 176.982 362.960,177.090 355.523,176.300 354.911 C 175.179 354.043,174.481 354.049,174.245 354.928 " stroke="none" fill="#664d04" fill-rule="evenodd"></path><path id="path2" d="M349.693 130.400 C 349.693 131.170,349.775 131.485,349.876 131.100 C 349.976 130.715,349.976 130.085,349.876 129.700 C 349.775 129.315,349.693 129.630,349.693 130.400 M315.362 193.300 C 314.606 194.193,314.607 194.195,315.400 193.541 C 315.840 193.179,316.560 192.795,317.000 192.688 C 317.769 192.500,317.768 192.491,316.962 192.446 C 316.501 192.421,315.781 192.805,315.362 193.300 M87.728 196.800 C 87.728 198.230,87.801 198.815,87.889 198.100 C 87.978 197.385,87.978 196.215,87.889 195.500 C 87.801 194.785,87.728 195.370,87.728 196.800 M64.105 203.087 C 64.714 203.179,65.614 203.177,66.105 203.082 C 66.597 202.987,66.100 202.911,65.000 202.914 C 63.900 202.917,63.497 202.995,64.105 203.087 M328.500 207.476 C 328.885 207.576,329.515 207.576,329.900 207.476 C 330.285 207.375,329.970 207.293,329.200 207.293 C 328.430 207.293,328.115 207.375,328.500 207.476 M349.900 217.082 C 350.395 217.178,351.205 217.178,351.700 217.082 C 352.195 216.987,351.790 216.909,350.800 216.909 C 349.810 216.909,349.405 216.987,349.900 217.082 M109.800 306.000 C 110.883 307.100,111.860 308.000,111.970 308.000 C 112.080 308.000,111.283 307.100,110.200 306.000 C 109.117 304.900,108.140 304.000,108.030 304.000 C 107.920 304.000,108.717 304.900,109.800 306.000 M115.578 315.100 L 114.200 316.600 115.700 315.222 C 117.096 313.938,117.384 313.600,117.078 313.600 C 117.012 313.600,116.337 314.275,115.578 315.100 M173.724 358.600 C 173.726 359.920,173.801 360.412,173.890 359.693 C 173.979 358.974,173.977 357.894,173.886 357.293 C 173.795 356.692,173.722 357.280,173.724 358.600 " stroke="none" fill="#af8404" fill-rule="evenodd"></path><path id="path3" d="M204.400 53.325 C 204.400 53.394,204.985 53.979,205.700 54.625 L 207.000 55.800 205.825 54.500 C 204.730 53.288,204.400 53.016,204.400 53.325 M295.775 62.500 L 294.600 63.800 295.900 62.625 C 296.615 61.979,297.200 61.394,297.200 61.325 C 297.200 61.016,296.870 61.288,295.775 62.500 M306.400 68.925 C 306.400 68.994,306.985 69.579,307.700 70.225 L 309.000 71.400 307.825 70.100 C 306.730 68.888,306.400 68.616,306.400 68.925 M315.701 82.600 C 315.705 83.480,315.787 83.793,315.883 83.295 C 315.979 82.798,315.975 82.078,315.875 81.695 C 315.775 81.313,315.696 81.720,315.701 82.600 M295.978 83.100 L 294.600 84.600 296.100 83.222 C 297.496 81.938,297.784 81.600,297.478 81.600 C 297.412 81.600,296.737 82.275,295.978 83.100 M60.505 203.087 C 61.114 203.179,62.014 203.177,62.505 203.082 C 62.997 202.987,62.500 202.911,61.400 202.914 C 60.300 202.917,59.897 202.995,60.505 203.087 M102.400 303.000 C 101.428 303.990,100.723 304.800,100.833 304.800 C 100.943 304.800,101.828 303.990,102.800 303.000 C 103.772 302.010,104.477 301.200,104.367 301.200 C 104.257 301.200,103.372 302.010,102.400 303.000 M115.600 311.800 C 116.346 312.570,117.047 313.200,117.157 313.200 C 117.267 313.200,116.746 312.570,116.000 311.800 C 115.254 311.030,114.553 310.400,114.443 310.400 C 114.333 310.400,114.854 311.030,115.600 311.800 M187.777 341.000 C 187.777 347.600,187.832 350.356,187.899 347.125 C 187.966 343.893,187.966 338.493,187.899 335.125 C 187.832 331.756,187.777 334.400,187.777 341.000 M248.167 340.800 C 248.167 345.090,248.226 346.845,248.298 344.700 C 248.370 342.555,248.370 339.045,248.298 336.900 C 248.226 334.755,248.167 336.510,248.167 340.800 M151.331 358.200 C 151.333 359.740,151.405 360.321,151.492 359.491 C 151.579 358.661,151.577 357.401,151.489 356.691 C 151.400 355.981,151.329 356.660,151.331 358.200 " stroke="none" fill="#946c04" fill-rule="evenodd"></path><path id="path4" d="M308.014 158.774 C 307.415 159.893,307.479 160.004,308.700 159.960 L 309.800 159.920 308.811 159.645 L 307.823 159.369 308.800 158.685 C 309.547 158.162,309.618 158.000,309.103 158.000 C 308.732 158.000,308.242 158.348,308.014 158.774 M113.293 172.800 C 113.293 173.570,113.375 173.885,113.476 173.500 C 113.576 173.115,113.576 172.485,113.476 172.100 C 113.375 171.715,113.293 172.030,113.293 172.800 M315.362 192.900 C 314.606 193.793,314.606 193.795,315.400 193.133 C 315.840 192.767,316.740 192.389,317.400 192.293 L 318.600 192.120 317.362 192.060 C 316.520 192.019,315.880 192.288,315.362 192.900 M87.714 201.000 C 87.717 202.100,87.795 202.503,87.887 201.895 C 87.979 201.286,87.977 200.386,87.882 199.895 C 87.787 199.403,87.711 199.900,87.714 201.000 M67.700 203.087 C 68.305 203.178,69.295 203.178,69.900 203.087 C 70.505 202.995,70.010 202.920,68.800 202.920 C 67.590 202.920,67.095 202.995,67.700 203.087 M85.600 216.553 C 85.600 216.908,87.218 217.094,87.423 216.762 C 87.546 216.563,87.187 216.400,86.624 216.400 C 86.061 216.400,85.600 216.469,85.600 216.553 M347.105 217.083 C 347.602 217.179,348.322 217.175,348.705 217.075 C 349.087 216.975,348.680 216.896,347.800 216.901 C 346.920 216.905,346.607 216.987,347.105 217.083 M125.320 236.400 C 125.320 237.610,125.395 238.105,125.487 237.500 C 125.578 236.895,125.578 235.905,125.487 235.300 C 125.395 234.695,125.320 235.190,125.320 236.400 M220.185 342.000 C 220.185 352.450,220.236 356.725,220.300 351.500 C 220.363 346.275,220.363 337.725,220.300 332.500 C 220.236 327.275,220.185 331.550,220.185 342.000 M231.600 350.156 C 231.600 350.242,232.217 350.385,232.972 350.473 C 233.727 350.561,234.256 350.490,234.148 350.316 C 233.955 350.003,231.600 349.855,231.600 350.156 " stroke="none" fill="#c59404" fill-rule="evenodd"></path><path id="path5" d="M87.737 205.800 C 87.739 207.560,87.809 208.230,87.893 207.289 C 87.978 206.349,87.977 204.909,87.891 204.089 C 87.805 203.270,87.736 204.040,87.737 205.800 M41.900 203.482 C 42.395 203.578,43.205 203.578,43.700 203.482 C 44.195 203.387,43.790 203.309,42.800 203.309 C 41.810 203.309,41.405 203.387,41.900 203.482 M247.693 350.400 C 247.693 351.170,247.775 351.485,247.876 351.100 C 247.976 350.715,247.976 350.085,247.876 349.700 C 247.775 349.315,247.693 349.630,247.693 350.400 M159.100 361.099 C 161.795 361.168,166.205 361.168,168.900 361.099 C 171.595 361.030,169.390 360.973,164.000 360.973 C 158.610 360.973,156.405 361.030,159.100 361.099 M214.500 361.094 C 215.545 361.176,217.255 361.176,218.300 361.094 C 219.345 361.012,218.490 360.944,216.400 360.944 C 214.310 360.944,213.455 361.012,214.500 361.094 " stroke="none" fill="#d4a104" fill-rule="evenodd"></path><path id="path6" d="M145.600 177.600 C 145.600 177.820,145.850 178.000,146.156 178.000 C 146.462 178.000,147.497 178.351,148.456 178.780 C 150.239 179.579,151.104 179.369,150.672 178.242 C 150.509 177.818,149.997 177.665,148.998 177.744 C 148.207 177.807,147.468 177.710,147.356 177.529 C 147.067 177.061,145.600 177.120,145.600 177.600 M254.623 177.562 C 254.500 177.762,254.039 177.831,253.600 177.716 C 253.090 177.582,252.798 177.705,252.794 178.053 C 252.789 178.512,252.732 178.511,252.439 178.049 C 252.247 177.746,251.889 177.621,251.645 177.772 C 250.970 178.189,251.113 179.200,251.846 179.200 C 252.802 179.200,256.400 177.861,256.400 177.506 C 256.400 177.075,254.895 177.123,254.623 177.562 M184.978 187.235 C 184.831 187.474,184.893 187.853,185.118 188.078 C 185.395 188.355,185.670 188.216,185.977 187.643 C 186.467 186.728,185.529 186.345,184.978 187.235 M216.075 187.225 C 216.171 187.514,216.486 187.829,216.775 187.925 C 217.075 188.025,217.225 187.875,217.125 187.575 C 217.029 187.286,216.714 186.971,216.425 186.875 C 216.125 186.775,215.975 186.925,216.075 187.225 M148.642 201.035 C 148.300 201.927,148.327 202.000,149.000 202.000 C 149.330 202.000,149.600 201.741,149.600 201.424 C 149.600 200.577,148.923 200.303,148.642 201.035 M197.856 212.469 C 197.299 213.421,196.479 215.021,196.036 216.025 C 194.987 218.397,194.275 218.991,191.534 219.783 C 188.589 220.633,187.681 221.822,188.607 223.614 C 188.952 224.281,189.404 224.721,189.613 224.592 C 189.831 224.457,189.717 223.940,189.344 223.370 C 188.506 222.092,190.039 220.558,192.236 220.476 C 193.948 220.411,195.415 219.377,196.029 217.800 C 196.286 217.140,197.122 215.372,197.886 213.871 C 199.443 210.810,199.422 209.796,197.856 212.469 M203.206 211.276 C 203.218 212.281,203.987 213.108,203.994 212.124 C 203.997 211.642,203.820 211.136,203.600 211.000 C 203.380 210.864,203.203 210.988,203.206 211.276 " stroke="none" fill="#fbd355" fill-rule="evenodd"></path><path id="path7" d="M97.775 64.100 L 96.600 65.400 97.900 64.225 C 99.112 63.130,99.384 62.800,99.075 62.800 C 99.006 62.800,98.421 63.385,97.775 64.100 M190.914 68.200 C 190.917 69.300,190.995 69.703,191.087 69.095 C 191.179 68.486,191.177 67.586,191.082 67.095 C 190.987 66.603,190.911 67.100,190.914 68.200 M303.600 66.525 C 303.600 66.594,304.185 67.179,304.900 67.825 L 306.200 69.000 305.025 67.700 C 303.930 66.488,303.600 66.216,303.600 66.525 M209.320 68.800 C 209.320 70.010,209.395 70.505,209.487 69.900 C 209.578 69.295,209.578 68.305,209.487 67.700 C 209.395 67.095,209.320 67.590,209.320 68.800 M289.381 69.700 L 287.800 71.400 289.500 69.819 C 291.081 68.348,291.384 68.000,291.081 68.000 C 291.016 68.000,290.251 68.765,289.381 69.700 M283.600 75.800 C 282.628 76.790,281.923 77.600,282.033 77.600 C 282.143 77.600,283.028 76.790,284.000 75.800 C 284.972 74.810,285.677 74.000,285.567 74.000 C 285.457 74.000,284.572 74.810,283.600 75.800 M277.600 82.200 C 276.628 83.190,275.923 84.000,276.033 84.000 C 276.143 84.000,277.028 83.190,278.000 82.200 C 278.972 81.210,279.677 80.400,279.567 80.400 C 279.457 80.400,278.572 81.210,277.600 82.200 M295.781 82.900 L 294.200 84.600 295.900 83.019 C 297.481 81.548,297.784 81.200,297.481 81.200 C 297.416 81.200,296.651 81.965,295.781 82.900 M272.575 87.700 L 271.400 89.000 272.700 87.825 C 273.415 87.179,274.000 86.594,274.000 86.525 C 274.000 86.216,273.670 86.488,272.575 87.700 M284.981 94.500 L 283.400 96.200 285.100 94.619 C 286.681 93.148,286.984 92.800,286.681 92.800 C 286.616 92.800,285.851 93.565,284.981 94.500 M285.775 100.100 L 284.600 101.400 285.900 100.225 C 286.615 99.579,287.200 98.994,287.200 98.925 C 287.200 98.616,286.870 98.888,285.775 100.100 M278.981 100.900 L 277.400 102.600 279.100 101.019 C 280.681 99.548,280.984 99.200,280.681 99.200 C 280.616 99.200,279.851 99.965,278.981 100.900 M279.381 106.900 L 277.800 108.600 279.500 107.019 C 281.081 105.548,281.384 105.200,281.081 105.200 C 281.016 105.200,280.251 105.965,279.381 106.900 M288.981 115.300 L 287.400 117.000 289.100 115.419 C 290.681 113.948,290.984 113.600,290.681 113.600 C 290.616 113.600,289.851 114.365,288.981 115.300 M310.008 157.097 C 307.832 157.289,307.185 157.769,307.246 159.149 C 307.283 159.970,307.334 160.025,307.480 159.400 C 307.742 158.281,308.740 157.605,310.176 157.572 C 310.849 157.556,311.760 157.389,312.200 157.200 C 313.034 156.841,312.958 156.838,310.008 157.097 M315.132 191.700 C 314.354 192.327,313.925 193.507,314.375 193.784 C 314.562 193.900,314.827 193.546,314.965 192.997 C 315.224 191.966,315.658 191.817,317.946 191.978 C 318.835 192.041,319.201 191.925,319.023 191.637 C 318.654 191.040,315.896 191.084,315.132 191.700 M73.507 203.090 C 74.226 203.179,75.306 203.177,75.907 203.086 C 76.508 202.995,75.920 202.922,74.600 202.924 C 73.280 202.926,72.788 203.001,73.507 203.090 M45.507 203.490 C 46.226 203.579,47.306 203.577,47.907 203.486 C 48.508 203.395,47.920 203.322,46.600 203.324 C 45.280 203.326,44.788 203.401,45.507 203.490 M87.746 212.600 C 87.747 214.800,87.814 215.649,87.895 214.487 C 87.976 213.324,87.976 211.524,87.893 210.487 C 87.811 209.449,87.745 210.400,87.746 212.600 M338.100 209.476 C 338.485 209.576,339.115 209.576,339.500 209.476 C 339.885 209.375,339.570 209.293,338.800 209.293 C 338.030 209.293,337.715 209.375,338.100 209.476 M332.100 209.876 C 332.485 209.976,333.115 209.976,333.500 209.876 C 333.885 209.775,333.570 209.693,332.800 209.693 C 332.030 209.693,331.715 209.775,332.100 209.876 M326.500 210.276 C 326.885 210.376,327.515 210.376,327.900 210.276 C 328.285 210.175,327.970 210.093,327.200 210.093 C 326.430 210.093,326.115 210.175,326.500 210.276 M320.305 210.683 C 320.802 210.779,321.522 210.775,321.905 210.675 C 322.287 210.575,321.880 210.496,321.000 210.501 C 320.120 210.505,319.807 210.587,320.305 210.683 M313.900 211.082 C 314.395 211.178,315.205 211.178,315.700 211.082 C 316.195 210.987,315.790 210.909,314.800 210.909 C 313.810 210.909,313.405 210.987,313.900 211.082 M365.293 214.000 C 365.293 214.770,365.375 215.085,365.476 214.700 C 365.576 214.315,365.576 213.685,365.476 213.300 C 365.375 212.915,365.293 213.230,365.293 214.000 M114.400 310.925 C 114.400 310.994,114.985 311.579,115.700 312.225 L 117.000 313.400 115.825 312.100 C 114.730 310.888,114.400 310.616,114.400 310.925 M114.386 315.900 L 112.200 318.200 114.500 316.014 C 116.637 313.982,116.983 313.600,116.686 313.600 C 116.624 313.600,115.589 314.635,114.386 315.900 M187.377 341.000 C 187.377 347.600,187.432 350.356,187.499 347.125 C 187.566 343.893,187.566 338.493,187.499 335.125 C 187.432 331.756,187.377 334.400,187.377 341.000 M247.769 341.000 C 247.770 345.620,247.828 347.455,247.899 345.078 C 247.970 342.701,247.969 338.921,247.898 336.678 C 247.827 334.435,247.769 336.380,247.769 341.000 M177.293 335.600 C 177.293 336.370,177.375 336.685,177.476 336.300 C 177.576 335.915,177.576 335.285,177.476 334.900 C 177.375 334.515,177.293 334.830,177.293 335.600 M224.400 343.458 C 224.400 343.674,224.985 344.379,225.700 345.025 L 227.000 346.200 225.800 344.802 C 225.140 344.033,224.555 343.328,224.500 343.235 C 224.445 343.143,224.400 343.243,224.400 343.458 M238.093 346.400 C 238.093 347.170,238.175 347.485,238.276 347.100 C 238.376 346.715,238.376 346.085,238.276 345.700 C 238.175 345.315,238.093 345.630,238.093 346.400 M179.200 357.325 C 179.200 357.394,179.785 357.979,180.500 358.625 L 181.800 359.800 180.625 358.500 C 179.530 357.288,179.200 357.016,179.200 357.325 " stroke="none" fill="#dcac04" fill-rule="evenodd"></path><path id="path8" d="M111.600 151.600 C 111.600 152.147,111.867 152.400,112.443 152.400 C 113.047 152.400,113.217 152.221,113.043 151.767 C 112.909 151.419,112.800 151.059,112.800 150.967 C 112.800 150.875,112.530 150.800,112.200 150.800 C 111.867 150.800,111.600 151.156,111.600 151.600 M290.900 151.065 C 290.189 151.352,290.281 151.908,291.115 152.355 C 291.705 152.670,291.845 152.567,291.911 151.769 C 291.991 150.798,291.833 150.688,290.900 151.065 M132.243 172.567 C 132.376 172.915,132.661 173.200,132.876 173.200 C 133.402 173.200,133.073 172.291,132.475 172.092 C 132.182 171.994,132.093 172.177,132.243 172.567 M147.336 177.470 C 147.719 177.853,149.600 177.889,149.600 177.513 C 149.600 177.341,149.030 177.200,148.333 177.200 C 147.637 177.200,147.188 177.321,147.336 177.470 M252.406 177.900 C 252.411 178.460,252.483 178.489,252.766 178.042 C 252.960 177.735,253.402 177.592,253.747 177.724 C 254.092 177.857,254.481 177.793,254.611 177.583 C 254.742 177.371,254.300 177.200,253.624 177.200 C 252.723 177.200,252.402 177.385,252.406 177.900 M150.767 178.300 C 151.245 179.234,151.066 179.378,149.600 179.237 C 149.175 179.197,149.217 179.313,149.742 179.634 C 150.950 180.372,152.052 179.068,151.039 178.100 C 150.336 177.428,150.325 177.436,150.767 178.300 M250.977 179.562 C 251.100 179.762,251.561 179.831,252.000 179.716 C 253.101 179.428,253.002 179.200,251.776 179.200 C 251.213 179.200,250.854 179.363,250.977 179.562 M215.775 186.840 C 215.625 187.083,215.878 187.656,216.336 188.114 C 217.107 188.885,217.189 188.894,217.438 188.246 C 217.585 187.861,217.512 187.352,217.275 187.115 C 216.968 186.808,216.915 186.958,217.092 187.642 C 217.315 188.509,217.273 188.546,216.651 188.036 C 216.273 187.726,216.056 187.231,216.169 186.936 C 216.417 186.289,216.155 186.226,215.775 186.840 M253.854 201.002 C 253.715 201.365,253.856 201.600,254.213 201.600 C 254.860 201.600,255.007 200.975,254.442 200.626 C 254.245 200.504,253.981 200.674,253.854 201.002 M198.472 218.300 C 198.432 221.215,198.535 223.600,198.700 223.601 C 198.865 223.601,198.952 222.026,198.893 220.101 C 198.694 213.610,198.545 212.970,198.472 218.300 M191.000 219.600 C 190.496 219.817,190.422 219.944,190.800 219.944 C 191.130 219.944,191.760 219.789,192.200 219.600 C 192.704 219.383,192.778 219.256,192.400 219.256 C 192.070 219.256,191.440 219.411,191.000 219.600 M190.100 224.265 C 188.752 224.809,190.024 224.989,194.408 224.876 C 197.280 224.803,199.124 224.601,198.985 224.376 C 198.749 223.993,191.013 223.896,190.100 224.265 M126.093 247.200 C 126.093 247.970,126.175 248.285,126.276 247.900 C 126.376 247.515,126.376 246.885,126.276 246.500 C 126.175 246.115,126.093 246.430,126.093 247.200 M184.705 302.683 C 185.202 302.779,185.922 302.775,186.305 302.675 C 186.687 302.575,186.280 302.496,185.400 302.501 C 184.520 302.505,184.207 302.587,184.705 302.683 M217.700 302.676 C 218.085 302.776,218.715 302.776,219.100 302.676 C 219.485 302.575,219.170 302.493,218.400 302.493 C 217.630 302.493,217.315 302.575,217.700 302.676 M191.905 303.483 C 192.402 303.579,193.122 303.575,193.505 303.475 C 193.887 303.375,193.480 303.296,192.600 303.301 C 191.720 303.305,191.407 303.387,191.905 303.483 M210.500 303.476 C 210.885 303.576,211.515 303.576,211.900 303.476 C 212.285 303.375,211.970 303.293,211.200 303.293 C 210.430 303.293,210.115 303.375,210.500 303.476 " stroke="none" fill="#fccc2c" fill-rule="evenodd"></path></g></svg>